<svg xmlns="http://www.w3.org/2000/svg" width="496" height="416" style="background:#0b0f14;font-family:monospace">
<rect x="48" y="48" width="400" height="320" fill="none" stroke="#3a4655" stroke-width="1"/>
<polygon points="56.0,192.0 440.0,192.0 440.0,56.0 56.0,56.0 56.0,192.0" fill="#173a2a" stroke="#2e6b4e" stroke-width="1"/>
<polygon points="56.0,360.0 440.0,360.0 440.0,224.0 56.0,224.0 56.0,360.0" fill="#173a2a" stroke="#2e6b4e" stroke-width="1"/>
<line x1="248.0" y1="32.0" x2="248.0" y2="384.0" stroke="#c9a227" stroke-width="2"/>
<line x1="112.0" y1="80.0" x2="112.0" y2="176.0" stroke="#c9a227" stroke-width="2"/>
<circle cx="248.0" cy="208.0" r="9" fill="none" stroke="#ff5555" stroke-width="2"/>
<line x1="235.0" y1="208.0" x2="261.0" y2="208.0" stroke="#ff5555" stroke-width="1"/>
<line x1="248.0" y1="195.0" x2="248.0" y2="221.0" stroke="#ff5555" stroke-width="1"/>
<text x="260.0" y="198.0" fill="#ff5555" font-size="13">1</text>
<circle cx="248.0" cy="372.0" r="9" fill="none" stroke="#ff5555" stroke-width="2"/>
<line x1="235.0" y1="372.0" x2="261.0" y2="372.0" stroke="#ff5555" stroke-width="1"/>
<line x1="248.0" y1="359.0" x2="248.0" y2="385.0" stroke="#ff5555" stroke-width="1"/>
<text x="260.0" y="362.0" fill="#ff5555" font-size="13">2</text>
<circle cx="248.0" cy="44.0" r="9" fill="none" stroke="#ffb454" stroke-width="2"/>
<line x1="235.0" y1="44.0" x2="261.0" y2="44.0" stroke="#ffb454" stroke-width="1"/>
<line x1="248.0" y1="31.0" x2="248.0" y2="57.0" stroke="#ffb454" stroke-width="1"/>
<text x="260.0" y="34.0" fill="#ffb454" font-size="13">3</text>
</svg>